<svg xmlns="http://www.w3.org/2000/svg" xmlns:xlink="http://www.w3.org/1999/xlink" viewBox="0 0 580 180.52"><defs><style>.cls-1{fill:url(#linear-gradient);}.cls-2{fill:url(#linear-gradient-2);}.cls-3{fill:url(#linear-gradient-3);}.cls-4{fill:url(#linear-gradient-4);}.cls-5{fill:url(#linear-gradient-5);}</style><linearGradient id="linear-gradient" x1="706.17" y1="-887.32" x2="750.31" y2="-912.8" gradientTransform="matrix(1, 0, 0, -1, -259.5, -839.47)" gradientUnits="userSpaceOnUse"><stop offset="0" stop-color="#c7140b"/><stop offset="0.75" stop-color="#ff3c1f"/></linearGradient><linearGradient id="linear-gradient-2" x1="588.33" y1="-914.18" x2="647.58" y2="-948.39" xlink:href="#linear-gradient"/><linearGradient id="linear-gradient-3" x1="673.95" y1="-1019.99" x2="673.95" y2="-839.48" gradientTransform="matrix(1, 0, 0, -1, -259.5, -839.47)" gradientUnits="userSpaceOnUse"><stop offset="0" stop-color="#ff3c1f"/><stop offset="0.85" stop-color="#ff3c1f"/><stop offset="0.95" stop-color="#f70"/></linearGradient><linearGradient id="linear-gradient-4" x1="276.71" y1="-937.1" x2="440.82" y2="-908.16" gradientTransform="matrix(1, 0, 0, -1, -259.5, -839.47)" gradientUnits="userSpaceOnUse"><stop offset="0" stop-color="#ff3c1f"/><stop offset="0.7" stop-color="#ff3c1f"/><stop offset="1" stop-color="#c7140b"/></linearGradient><linearGradient id="linear-gradient-5" x1="510.33" y1="-1019.99" x2="510.33" y2="-839.48" xlink:href="#linear-gradient-3"/></defs><g id="Layer_2" data-name="Layer 2"><g id="Layer_1-2" data-name="Layer 1"><path class="cls-1" d="M518.11,0l-28.39,83.7L472.23,15.48C468.26,0,463.16,0,460.26,0a52.44,52.44,0,0,0-12.73,1.82L433.81,62.61l26.48,117.91h52.86L580,0Z"/><path class="cls-2" d="M384.65,83.92l-21.72-68.3C358.29,1,351.63,0,347.59,0A79.63,79.63,0,0,0,332,1.82V107.9l28.36,72.61h8.3l27.75-1.81Z"/><path class="cls-3" d="M460.26,0h-48c-3.59,0-13.08,0-15.69,15.46l-27.92,165h43.76l36-165C451.78,0,459.18,0,460.26,0Z"/><path class="cls-4" d="M169.53,1.82A77.94,77.94,0,0,0,154.06,0H0L19.1,51.58H66.38V180.52H118V51.58h51.57V1.82Z"/><path class="cls-5" d="M298.46,0A15.48,15.48,0,0,0,283,15.48V80.56L227.37,10.23A26.3,26.3,0,0,0,206.83,0L154.06,0S167,0,167,15.48v165h51.57V82.17l70.19,88.75A25.73,25.73,0,0,0,309,180.51h25.6v-165c0-9.15,5.83-15.48,13-15.48Z"/></g></g></svg>